<svg width="242" height="267" viewBox="0 0 242 267" fill="none" xmlns="http://www.w3.org/2000/svg">
<path d="M161.988 56.5798C162.26 54.9285 164.634 54.9285 164.906 56.5798L165.747 61.6878L170.855 62.5292C172.507 62.8012 172.507 65.1756 170.855 65.4476L165.747 66.289L164.906 71.397C164.634 73.0483 162.26 73.0483 161.988 71.397L161.146 66.289L156.038 65.4476C154.387 65.1756 154.387 62.8012 156.038 62.5292L161.146 61.6878L161.988 56.5798Z" fill="#1353FE"/>
<path d="M161.988 151.698C162.26 150.047 164.634 150.047 164.906 151.698L165.747 156.806L170.855 157.647C172.507 157.919 172.507 160.294 170.855 160.566L165.747 161.407L164.906 166.515C164.634 168.167 162.26 168.167 161.988 166.515L161.146 161.407L156.038 160.566C154.387 160.294 154.387 157.919 156.038 157.647L161.146 156.806L161.988 151.698Z" fill="#1353FE"/>
<line x1="163.336" x2="163.336" y2="244.586" stroke="#1353FE" stroke-width="1.12539"/>
<line x1="95.9983" y1="63.9603" x2="337.452" y2="63.2352" stroke="#1353FE" stroke-width="1.12539"/>
<line x1="95.9983" y1="159.243" x2="337.452" y2="158.518" stroke="#1353FE" stroke-width="1.12539"/>
<path d="M170.753 78.5798C171.025 76.9285 173.399 76.9285 173.671 78.5798L174.513 83.6878L179.621 84.5292C181.272 84.8012 181.272 87.1756 179.621 87.4476L174.513 88.289L173.671 93.397C173.399 95.0483 171.025 95.0483 170.753 93.397L169.912 88.289L164.804 87.4476C163.152 87.1756 163.152 84.8012 164.804 84.5292L169.912 83.6878L170.753 78.5798Z" fill="#F2F5F5"/>
<path d="M66.9877 78.5798C67.2597 76.9285 69.6341 76.9285 69.9061 78.5798L70.7475 83.6878L75.8555 84.5292C77.5068 84.8012 77.5068 87.1756 75.8555 87.4476L70.7475 88.289L69.9061 93.397C69.6341 95.0483 67.2597 95.0483 66.9877 93.397L66.1463 88.289L61.0383 87.4476C59.387 87.1756 59.387 84.8012 61.0383 84.5292L66.1463 83.6878L66.9877 78.5798Z" fill="#F2F5F5"/>
<path d="M66.9877 173.698C67.2597 172.047 69.6341 172.047 69.9061 173.698L70.7475 178.806L75.8555 179.647C77.5068 179.919 77.5068 182.294 75.8555 182.566L70.7475 183.407L69.9061 188.515C69.6341 190.167 67.2597 190.167 66.9877 188.515L66.1463 183.407L61.0383 182.566C59.387 182.294 59.387 179.919 61.0383 179.647L66.1463 178.806L66.9877 173.698Z" fill="#F2F5F5"/>
<path d="M170.753 173.698C171.025 172.047 173.399 172.047 173.671 173.698L174.513 178.806L179.621 179.647C181.272 179.919 181.272 182.294 179.621 182.566L174.513 183.407L173.671 188.515C173.399 190.167 171.025 190.167 170.753 188.515L169.912 183.407L164.804 182.566C163.152 182.294 163.152 179.919 164.804 179.647L169.912 178.806L170.753 173.698Z" fill="#F2F5F5"/>
<line x1="68.3364" y1="22" x2="68.3364" y2="266.586" stroke="#F2F5F5" stroke-width="1.12539"/>
<line x1="171.872" y1="22" x2="171.872" y2="266.586" stroke="#F2F5F5" stroke-width="1.12539"/>
<line x1="0.99831" y1="85.9603" x2="242.452" y2="85.2352" stroke="#F2F5F5" stroke-width="1.12539"/>
<line x1="0.99831" y1="181.243" x2="242.452" y2="180.518" stroke="#F2F5F5" stroke-width="1.12539"/>
</svg>
