<svg width="225" height="265" viewBox="0 0 225 265" fill="none" xmlns="http://www.w3.org/2000/svg">
<path d="M63.8498 59.5798C63.5778 57.9285 61.2034 57.9285 60.9314 59.5798L60.09 64.6878L54.982 65.5292C53.3306 65.8012 53.3306 68.1756 54.982 68.4476L60.09 69.289L60.9314 74.397C61.2034 76.0483 63.5778 76.0483 63.8498 74.397L64.6911 69.289L69.7992 68.4476C71.4505 68.1756 71.4505 65.8012 69.7991 65.5292L64.6911 64.6878L63.8498 59.5798Z" fill="#1353FE"/>
<path d="M63.8498 154.698C63.5778 153.047 61.2034 153.047 60.9314 154.698L60.09 159.806L54.982 160.647C53.3306 160.919 53.3306 163.294 54.982 163.566L60.09 164.407L60.9314 169.515C61.2034 171.167 63.5778 171.167 63.8498 169.515L64.6911 164.407L69.7992 163.566C71.4505 163.294 71.4505 160.919 69.7991 160.647L64.6911 159.806L63.8498 154.698Z" fill="#1353FE"/>
<line y1="-0.562697" x2="244.586" y2="-0.562697" transform="matrix(0 1 1 0 63.0638 3)" stroke="#006400" stroke-width="1.12539"/>
<line y1="-0.562697" x2="241.455" y2="-0.562697" transform="matrix(-0.999995 -0.00300299 -0.00300299 0.999995 129.837 67.5229)" stroke="#006400" stroke-width="1.12539"/>
<line y1="-0.562697" x2="241.455" y2="-0.562697" transform="matrix(-0.999995 -0.00300299 -0.00300299 0.999995 129.837 162.806)" stroke="#006400" stroke-width="1.12539"/>
<path d="M55.0845 76.5798C54.8125 74.9285 52.4381 74.9285 52.1661 76.5798L51.3247 81.6878L46.2167 82.5292C44.5654 82.8012 44.5654 85.1756 46.2167 85.4476L51.3247 86.289L52.1661 91.397C52.4381 93.0483 54.8125 93.0483 55.0845 91.397L55.9259 86.289L61.0339 85.4476C62.6852 85.1756 62.6852 82.8012 61.0339 82.5292L55.9259 81.6878L55.0845 76.5798Z" fill="#F2F5F5"/>
<path d="M158.85 76.5798C158.578 74.9285 156.203 74.9285 155.931 76.5798L155.09 81.6878L149.982 82.5292C148.331 82.8012 148.331 85.1756 149.982 85.4476L155.09 86.289L155.931 91.397C156.203 93.0483 158.578 93.0483 158.85 91.397L159.691 86.289L164.799 85.4476C166.45 85.1756 166.45 82.8012 164.799 82.5292L159.691 81.6878L158.85 76.5798Z" fill="#F2F5F5"/>
<path d="M158.85 171.698C158.578 170.047 156.203 170.047 155.931 171.698L155.09 176.806L149.982 177.647C148.331 177.919 148.331 180.294 149.982 180.566L155.09 181.407L155.931 186.515C156.203 188.167 158.578 188.167 158.85 186.515L159.691 181.407L164.799 180.566C166.45 180.294 166.45 177.919 164.799 177.647L159.691 176.806L158.85 171.698Z" fill="#F2F5F5"/>
<path d="M55.0845 171.698C54.8125 170.047 52.4381 170.047 52.1661 171.698L51.3247 176.806L46.2167 177.647C44.5654 177.919 44.5654 180.294 46.2167 180.566L51.3247 181.407L52.1661 186.515C52.4381 188.167 54.8125 188.167 55.0845 186.515L55.9259 181.407L61.0339 180.566C62.6852 180.294 62.6852 177.919 61.0339 177.647L55.9259 176.806L55.0845 171.698Z" fill="#F2F5F5"/>
<line y1="-0.562697" x2="244.586" y2="-0.562697" transform="matrix(0 1 1 0 158.064 20)" stroke="#F2F5F5" stroke-width="1.12539"/>
<line y1="-0.562697" x2="244.586" y2="-0.562697" transform="matrix(0 1 1 0 54.5279 20)" stroke="#F2F5F5" stroke-width="1.12539"/>
<line y1="-0.562697" x2="241.455" y2="-0.562697" transform="matrix(-0.999995 -0.00300299 -0.00300299 0.999995 224.837 84.5229)" stroke="#006400" stroke-width="1.12539"/>
<line y1="-0.562697" x2="241.455" y2="-0.562697" transform="matrix(-0.999995 -0.00300299 -0.00300299 0.999995 224.837 179.806)" stroke="#006400" stroke-width="1.12539"/>
</svg>
